<svg xmlns="http://www.w3.org/2000/svg" width="42" height="42" viewBox="0 0 42 42">
    <path fill="#2fbf5b" d="M21,28c-3.86,0-7-3.141-7-7c0-3.86,3.14-7,7-7c3.859,0,7,3.14,7,7C28,24.859,24.859,28,21,28z M21,15 c-3.309,0-6,2.691-6,6s2.691,6,6,6s6-2.691,6-6S24.309,15,21,15z"></path>
    <path id="coganim" fill="#333333" d="M41.595,17.918l-5.882-0.96l-0.08-0.271c-0.306-1.036-0.724-2.044-1.242-2.996l-0.133-0.244l3.432-4.889
    c0.136-0.192,0.113-0.453-0.054-0.621l-3.63-3.626c-0.158-0.157-0.441-0.181-0.622-0.05l-4.823,3.468l-0.249-0.137
    c-0.959-0.526-1.975-0.95-3.02-1.257l-0.268-0.078L24,0.4C23.959,0.168,23.758,0,23.523,0h-5.13c-0.237,0-0.438,0.17-0.478,0.406
    l-0.953,5.833L16.69,6.317c-1.048,0.305-2.065,0.723-3.021,1.242l-0.247,0.134L8.61,4.256C8.427,4.124,8.144,4.148,7.988,4.307
    L4.36,7.932C4.195,8.099,4.172,8.358,4.307,8.551l3.384,4.842l-0.135,0.245C7.027,14.6,6.601,15.624,6.29,16.68L6.21,16.951
    l-5.808,0.965C0.169,17.955,0,18.156,0,18.394v5.13c0,0.235,0.167,0.437,0.398,0.478l5.808,1.028l0.078,0.267
    c0.313,1.062,0.738,2.085,1.263,3.043l0.136,0.247l-3.427,4.797c-0.138,0.192-0.117,0.454,0.051,0.621l3.626,3.629
    c0.158,0.157,0.437,0.182,0.618,0.055l4.851-3.394l0.244,0.133c0.956,0.521,1.976,0.942,3.03,1.251l0.271,0.079l0.969,5.839
    C17.956,41.83,18.157,42,18.396,42h5.128c0.235,0,0.438-0.168,0.479-0.398l1.037-5.856l0.267-0.08
    c1.039-0.309,2.055-0.734,3.017-1.265l0.245-0.136l4.883,3.425c0.08,0.057,0.175,0.086,0.275,0.086c0.13,0,0.255-0.051,0.344-0.14
    l3.625-3.63c0.168-0.168,0.189-0.432,0.051-0.625l-3.482-4.832l0.135-0.248c0.517-0.947,0.934-1.957,1.239-3l0.078-0.268
    l5.888-1.031C41.833,23.961,42,23.76,42,23.524v-5.128C42,18.158,41.829,17.957,41.595,17.918z M33.345,28.932l3.375,4.682
    l-3.049,3.051l-4.73-3.319c-0.149-0.105-0.369-0.112-0.53-0.017c-1.217,0.741-2.538,1.294-3.926,1.645
    c-0.185,0.048-0.326,0.2-0.359,0.386l-1.007,5.674h-4.314l-0.941-5.654c-0.032-0.19-0.173-0.344-0.361-0.391
    c-1.395-0.344-2.725-0.894-3.953-1.632c-0.156-0.095-0.376-0.088-0.525,0.019l-4.695,3.289l-3.05-3.053l3.322-4.642
    c0.113-0.157,0.12-0.366,0.02-0.533c-0.746-1.23-1.301-2.563-1.648-3.96c-0.045-0.186-0.196-0.327-0.384-0.36l-5.621-0.998v-4.313
    l5.623-0.936c0.19-0.032,0.343-0.172,0.39-0.359c0.348-1.397,0.903-2.731,1.648-3.964c0.1-0.165,0.093-0.372-0.017-0.529
    L5.332,8.33l3.049-3.05l4.659,3.329c0.15,0.105,0.371,0.114,0.53,0.02c1.229-0.736,2.559-1.283,3.951-1.623
    c0.189-0.046,0.331-0.2,0.361-0.392l0.923-5.648h4.311l0.994,5.673c0.033,0.188,0.175,0.34,0.36,0.387
    c1.386,0.344,2.71,0.896,3.937,1.638c0.158,0.096,0.382,0.086,0.534-0.021l4.674-3.359l3.048,3.049l-3.324,4.736
    c-0.11,0.156-0.118,0.363-0.02,0.529c0.731,1.217,1.278,2.535,1.623,3.917c0.047,0.187,0.2,0.327,0.391,0.358l5.699,0.933v4.31
    l-5.704,1.001c-0.188,0.033-0.34,0.175-0.386,0.361c-0.342,1.38-0.887,2.698-1.619,3.918
    C33.224,28.564,33.232,28.772,33.345,28.932z"></path>
</svg>